<svg xmlns="http://www.w3.org/2000/svg" viewbox="0 0 1079 1919" width="1079" height="1919"><defs><linearGradient id="3302241356095990656" x1="490.49680000000006" x2="589.6984" y1="-2.755600000000055" y2="1171.1300000000006" gradientTransform="matrix(0.0009259259259259261,-0,0,0.0010165607063158722,-0,-0)"><stop offset="0" stop-color="#120B0BFF" /><stop offset="1" stop-color="#1F2B6EFF" /></linearGradient><linearGradient id="7237400530058316676" x1="440.8959999999999" x2="699.9223999999999" y1="1932.6588287870493" y2="419.18135927307566" gradientTransform="matrix(0.0009259259259259261,-0,0,0.0008943580673423,0.0000000000000002138207306685487,-0.7171674892972165)"><stop offset="0" stop-color="#162034FF" /><stop offset="1" stop-color="#46305B35" /></linearGradient></defs><g transform="matrix(1, -0, -0, 1, -0, -0)">
<g transform="matrix(1, 0, 0, 1, 0, 0)">
	<rect class="artboard-bg" fill="#1C1A1EFF" x="0" y="0" width="1080" height="1920"/>
	<g class="artboard" transform="matrix(1, 0, 0, 1, 0, 0)">
		<path class="vector-data" d="M0.000000,0.000000C0.000000,0.000000 1080.000000,0.000000 1080.000000,0.000000 C1080.000000,0.000000 1080.000000,573.699495 1080.000000,573.699495 C1080.000000,573.699495 985.400231,488.457769 939.659600,603.810750 C893.918969,719.163732 956.193200,783.124246 793.612800,896.567478 C631.032400,1010.010710 457.448828,1032.955803 344.450000,841.675591 C231.451172,650.395380 117.749496,473.284202 99.201600,563.556700 C80.653704,653.829199 0.000000,685.252175 0.000000,685.252175 C0.000000,685.252175 0.000000,0.000000 0.000000,0.000000 Z" fill="url('#3302241356095990656')" stroke="#000000" stroke-width="0" stroke-dasharray="none" stroke-dashoffset="0" stroke-linecap="butt" stroke-linejoin="miter" stroke-miterlimit="4" />
		<path class="vector-data" d="M-0.000000,822.398974C286.582400,734.103304 168.091600,955.399746 366.494800,1020.026870 C564.898000,1084.653994 555.355823,786.249267 829.435600,834.762449 C975.482400,860.613298 1080.000000,819.850085 1080.000000,817.695848 C1080.000000,815.541610 1080.000000,1924.295951 1080.000000,1919.987476 C1080.000000,1915.679001 -0.000000,1919.987476 -0.000000,1919.987476 " fill="url('#7237400530058316676')" stroke="#000000" stroke-width="0" stroke-dasharray="none" stroke-dashoffset="0" stroke-linecap="butt" stroke-linejoin="miter" stroke-miterlimit="4" />
		<path class="vector-data" d="M0.055065,135.448847C0.055065,135.448847 52.417083,9.363135 143.352735,-9.736813 C234.288386,-28.836762 226.007085,228.846583 253.557325,425.839311 C281.107566,622.832039 384.195959,879.357541 462.968453,750.616652 C541.740948,621.875763 471.247001,486.981813 595.251384,433.496137 C719.255768,380.010461 718.068896,462.169398 813.726276,516.614168 C909.383655,571.058939 936.912253,622.861262 958.987690,498.465947 C981.063127,374.070633 1080.046547,326.629398 1080.046719,322.767819 C1080.046891,318.906241 1080.001330,1341.366198 1080.001330,1341.366198 C1080.001330,1341.366198 1079.987813,1644.716942 978.224111,1682.914840 C876.460408,1721.112739 811.503082,1335.269582 694.412804,1335.209383 C577.322527,1335.149184 423.690076,1181.814636 380.276107,1296.987384 C336.862138,1412.160132 261.767260,1701.986916 192.882708,1579.718242 C123.998157,1457.449569 178.304717,1209.566407 104.062986,1220.661373 C29.821255,1231.756338 -0.000000,1371.193225 -0.000000,1371.193225 C-0.000000,1371.193225 0.055065,135.448847 0.055065,135.448847 Z" fill="#130D15" fill-opacity="0.478" stroke="#000000" stroke-width="0" stroke-dasharray="none" stroke-dashoffset="0" stroke-linecap="butt" stroke-linejoin="miter" stroke-miterlimit="4" />
		<path class="vector-data" d="M760.105687,-31.346108C760.105687,-31.346108 759.147470,-26.976337 758.360067,-25.393905 C757.572664,-23.811473 751.785248,-22.331045 751.785248,-22.331045 C751.785248,-22.331045 757.397469,-20.457274 758.015731,-18.801422 C758.633993,-17.145570 759.131756,-12.699751 759.131756,-12.699751 C759.131756,-12.699751 760.089973,-17.069522 760.877376,-18.651954 C761.664779,-20.234386 767.545967,-21.290596 767.545967,-21.290596 C767.545967,-21.290596 761.839975,-23.588584 761.221713,-25.244437 C760.603451,-26.900289 760.105687,-31.346108 760.105687,-31.346108 ZM895.640658,-28.719122C895.640658,-28.719122 894.547248,-23.951189 893.669749,-22.229175 C892.792250,-20.507161 886.448754,-18.948954 886.448754,-18.948954 C886.448754,-18.948954 892.565621,-16.841478 893.224323,-15.024489 C893.883024,-13.207500 894.380802,-8.341193 894.380802,-8.341193 C894.380802,-8.341193 895.474213,-13.109126 896.351712,-14.831140 C897.229210,-16.553154 903.670802,-17.646537 903.670802,-17.646537 C903.670802,-17.646537 897.455839,-20.218836 896.797138,-22.035826 C896.138436,-23.852815 895.640658,-28.719122 895.640658,-28.719122 ZM131.787325,82.274843C131.787325,82.274843 131.712536,83.594321 131.556994,84.092777 C131.401453,84.591232 129.782712,85.294166 129.782712,85.294166 C129.782712,85.294166 131.507482,85.577803 131.765389,86.031824 C132.023296,86.485846 132.376755,87.759298 132.376755,87.759298 C132.376755,87.759298 132.451544,86.439821 132.607085,85.941365 C132.762627,85.442909 134.428591,84.859319 134.428591,84.859319 C134.428591,84.859319 132.656597,84.456338 132.398690,84.002317 C132.140783,83.548296 131.787325,82.274843 131.787325,82.274843 ZM233.141701,78.103171C233.141701,78.103171 232.522606,81.454258 231.963117,82.678922 C231.403628,83.903586 227.034863,85.176949 227.034863,85.176949 C227.034863,85.176949 231.355011,86.461691 231.867564,87.706729 C232.380116,88.951767 232.871435,92.323957 232.871435,92.323957 C232.871435,92.323957 233.490530,88.972870 234.050019,87.748206 C234.609508,86.523542 239.060385,85.570783 239.060385,85.570783 C239.060385,85.570783 234.658125,83.965437 234.145573,82.720399 C233.633021,81.475361 233.141701,78.103171 233.141701,78.103171 ZM336.002758,86.235623C336.002758,86.235623 335.782899,88.226606 335.507193,88.968445 C335.231486,89.710284 332.724699,90.643317 332.724699,90.643317 C332.724699,90.643317 335.312208,91.212030 335.665848,91.920040 C336.019487,92.628050 336.451502,94.583993 336.451502,94.583993 C336.451502,94.583993 336.671361,92.593010 336.947067,91.851171 C337.222774,91.109332 339.791388,90.360744 339.791388,90.360744 C339.791388,90.360744 337.142052,89.607586 336.788412,88.899576 C336.434773,88.191566 336.002758,86.235623 336.002758,86.235623 ZM450.907605,76.593877C450.907605,76.593877 449.819308,81.346766 448.945216,83.063507 C448.071123,84.780248 441.748641,86.335523 441.748641,86.335523 C441.748641,86.335523 447.846442,88.434161 448.503618,90.245061 C449.160793,92.055961 449.658577,96.906379 449.658577,96.906379 C449.658577,96.906379 450.746873,92.153490 451.620966,90.436749 C452.495058,88.720008 458.915473,87.628022 458.915473,87.628022 C458.915473,87.628022 452.719739,85.066095 452.062564,83.255195 C451.405388,81.444295 450.907605,76.593877 450.907605,76.593877 ZM695.855883,96.210380C695.855883,96.210380 695.669617,98.063748 695.420016,98.756080 C695.170416,99.448413 692.847939,100.338897 692.847939,100.338897 C692.847939,100.338897 695.259185,100.844109 695.594488,101.499240 C695.929790,102.154371 696.349363,103.969206 696.349363,103.969206 C696.349363,103.969206 696.535630,102.115838 696.785230,101.423506 C697.034831,100.731173 699.416481,100.011635 699.416481,100.011635 C699.416481,100.011635 696.946061,99.335477 696.610759,98.680346 C696.275456,98.025215 695.855883,96.210380 695.855883,96.210380 ZM810.747869,69.743454C810.747869,69.743454 809.580628,74.728583 808.653951,76.526732 C807.727273,78.324880 801.080386,79.925416 801.080386,79.925416 C801.080386,79.925416 807.472526,82.160487 808.153260,84.065394 C808.833994,85.970301 809.331702,91.066010 809.331702,91.066010 C809.331702,91.066010 810.498943,86.080881 811.425620,84.282732 C812.352298,82.484584 819.099631,81.371026 819.099631,81.371026 C819.099631,81.371026 812.607045,78.648977 811.926311,76.744070 C811.245577,74.839163 810.747869,69.743454 810.747869,69.743454 ZM983.547069,58.142312C983.547069,58.142312 982.533499,62.675277 981.709190,64.314925 C980.884882,65.954573 974.869581,67.466948 974.869581,67.466948 C974.869581,67.466948 980.688648,69.436431 981.323504,71.158316 C981.958360,72.880201 982.456184,77.498346 982.456184,77.498346 C982.456184,77.498346 983.469755,72.965382 984.294063,71.325734 C985.118372,69.686086 991.229221,68.614569 991.229221,68.614569 C991.229221,68.614569 985.314606,66.204227 984.679750,64.482342 C984.044894,62.760458 983.547069,58.142312 983.547069,58.142312 ZM237.283941,167.527789C237.283941,167.527789 234.712977,176.833072 232.832941,180.151798 C230.952906,183.470524 218.310327,185.990311 218.310327,185.990311 C218.310327,185.990311 230.186878,190.678079 231.327357,194.317830 C232.467837,197.957580 233.025507,207.595378 233.025507,207.595378 C233.025507,207.595378 235.596472,198.290095 237.476507,194.971369 C239.356543,191.652643 252.152050,190.057849 252.152050,190.057849 C252.152050,190.057849 240.122571,184.445088 238.982091,180.805337 C237.841611,177.165587 237.283941,167.527789 237.283941,167.527789 ZM527.760514,163.758801C527.760514,163.758801 523.937824,177.268615 521.173798,182.078227 C518.409772,186.887838 500.000665,190.438765 500.000665,190.438765 C500.000665,190.438765 517.230912,197.363098 518.856818,202.666742 C520.482725,207.970386 521.207106,221.991916 521.207106,221.991916 C521.207106,221.991916 525.029795,208.482101 527.793821,203.672490 C530.557847,198.862878 549.181046,196.658570 549.181046,196.658570 C549.181046,196.658570 531.736707,188.387618 530.110801,183.083974 C528.484895,177.780331 527.760514,163.758801 527.760514,163.758801 ZM639.389790,184.276040C639.389790,184.276040 639.256230,185.896107 639.049262,186.504103 C638.842293,187.112099 636.829734,187.925389 636.829734,187.925389 C636.829734,187.925389 638.941563,188.328525 639.244370,188.894919 C639.547177,189.461314 639.941640,191.038290 639.941640,191.038290 C639.941640,191.038290 640.075200,189.418223 640.282169,188.810227 C640.489137,188.202232 642.556001,187.537176 642.556001,187.537176 C642.556001,187.537176 640.389868,186.985805 640.087060,186.419411 C639.784253,185.853017 639.389790,184.276040 639.389790,184.276040 ZM793.808038,185.041978C793.808038,185.041978 793.689849,186.588614 793.495832,187.169947 C793.301815,187.751280 791.386071,188.538820 791.386071,188.538820 C791.386071,188.538820 793.403487,188.911431 793.695661,189.450156 C793.987836,189.988881 794.373241,191.491383 794.373241,191.491383 C794.373241,191.491383 794.491431,189.944747 794.685448,189.363414 C794.879465,188.782081 796.847872,188.135677 796.847872,188.135677 C796.847872,188.135677 794.777793,187.621930 794.485618,187.083205 C794.193443,186.544480 793.808038,185.041978 793.808038,185.041978 ZM947.044831,162.604350C947.044831,162.604350 944.559137,171.633581 942.738323,174.854718 C940.917510,178.075856 928.655392,180.531624 928.655392,180.531624 C928.655392,180.531624 940.180873,185.068489 941.290506,188.598334 C942.400140,192.128178 942.949787,201.477166 942.949787,201.477166 C942.949787,201.477166 945.435482,192.447935 947.256295,189.226798 C949.077108,186.005660 961.488412,184.447077 961.488412,184.447077 C961.488412,184.447077 949.813745,179.013027 948.704112,175.483182 C947.594479,171.953338 947.044831,162.604350 947.044831,162.604350 ZM1051.875874,200.018396C1051.875874,200.018396 1051.790351,201.397393 1051.624972,201.917625 C1051.459594,202.437858 1049.763417,203.163721 1049.763417,203.163721 C1049.763417,203.163721 1051.564954,203.469831 1051.832052,203.945910 C1052.099149,204.421988 1052.461582,205.755251 1052.461582,205.755251 C1052.461582,205.755251 1052.547105,204.376254 1052.712483,203.856021 C1052.877862,203.335789 1054.622745,202.734954 1054.622745,202.734954 C1054.622745,202.734954 1052.772501,202.303815 1052.505404,201.827737 C1052.238307,201.351659 1051.875874,200.018396 1051.875874,200.018396 ZM100.017128,326.404507C100.017128,326.404507 99.634022,328.993547 99.238247,329.948873 C98.842472,330.904200 95.524333,332.001556 95.524333,332.001556 C95.524333,332.001556 98.875436,332.868937 99.303036,333.810449 C99.730635,334.751962 100.200377,337.326693 100.200377,337.326693 C100.200377,337.326693 100.583482,334.737653 100.979257,333.782326 C101.375032,332.826999 104.765002,331.973458 104.765002,331.973458 C104.765002,331.973458 101.342068,330.862263 100.914469,329.920750 C100.486869,328.979238 100.017128,326.404507 100.017128,326.404507 ZM317.816547,280.193993C317.816547,280.193993 317.389401,282.931594 316.962463,283.939617 C316.535526,284.947641 313.013747,286.081654 313.013747,286.081654 C313.013747,286.081654 316.554041,287.027814 316.998855,288.028078 C317.443669,289.028341 317.919479,291.757905 317.919479,291.757905 C317.919479,291.757905 318.346624,289.020304 318.773562,288.012281 C319.200500,287.004258 322.796287,286.128948 322.796287,286.128948 C322.796287,286.128948 319.181984,284.924084 318.737170,283.923820 C318.292356,282.923557 317.816547,280.193993 317.816547,280.193993 ZM1040.202949,314.101266C1040.202949,314.101266 1038.266909,321.394327 1036.823683,324.002989 C1035.380458,326.611650 1025.519181,328.680736 1025.519181,328.680736 C1025.519181,328.680736 1034.838575,332.250947 1035.758644,335.086698 C1036.678713,337.922450 1037.190563,345.450730 1037.190563,345.450730 C1037.190563,345.450730 1039.126602,338.157669 1040.569828,335.549007 C1042.013054,332.940346 1052.001148,331.593008 1052.001148,331.593008 C1052.001148,331.593008 1042.554937,327.301050 1041.634867,324.465298 C1040.714798,321.629546 1040.202949,314.101266 1040.202949,314.101266 ZM249.712773,368.276523C249.712773,368.276523 249.520333,370.155729 249.265882,370.857368 C249.011432,371.559008 246.654431,372.457640 246.654431,372.457640 C246.654431,372.457640 249.098789,372.974599 249.437579,373.639629 C249.776368,374.304660 250.198403,376.145945 250.198403,376.145945 C250.198403,376.145945 250.390843,374.266740 250.645294,373.565100 C250.899745,372.863460 253.316430,372.138303 253.316430,372.138303 C253.316430,372.138303 250.812388,371.447870 250.473598,370.782839 C250.134809,370.117809 249.712773,368.276523 249.712773,368.276523 ZM1030.805156,424.310212C1030.805156,424.310212 1030.229856,427.525010 1029.700256,428.701657 C1029.170657,429.878304 1024.990746,431.122086 1024.990746,431.122086 C1024.990746,431.122086 1029.137808,432.330094 1029.635695,433.520507 C1030.133582,434.710920 1030.622548,437.939977 1030.622548,437.939977 C1030.622548,437.939977 1031.197847,434.725179 1031.727447,433.548532 C1032.257047,432.371885 1036.517371,431.434907 1036.517371,431.434907 C1036.517371,431.434907 1032.289895,429.920095 1031.792009,428.729682 C1031.294122,427.539269 1030.805156,424.310212 1030.805156,424.310212 ZM169.498477,444.163257C169.498477,444.163257 169.355110,445.828725 169.140017,446.453176 C168.924925,447.077628 166.852324,447.906477 166.852324,447.906477 C166.852324,447.906477 169.022484,448.328886 169.331764,448.912452 C169.641044,449.496019 170.040819,451.119139 170.040819,451.119139 C170.040819,451.119139 170.184187,449.453671 170.399280,448.829220 C170.614372,448.204768 172.742264,447.528555 172.742264,447.528555 C172.742264,447.528555 170.516813,446.953510 170.207533,446.369944 C169.898252,445.786377 169.498477,444.163257 169.498477,444.163257 ZM243.266010,515.739554C243.266010,515.739554 241.921148,521.248591 240.876024,523.230430 C239.830899,525.212269 232.452474,526.915468 232.452474,526.915468 C232.452474,526.915468 239.508674,529.457699 240.242708,531.574575 C240.976743,533.691451 241.474724,539.340359 241.474724,539.340359 C241.474724,539.340359 242.819586,533.831322 243.864710,531.849483 C244.909835,529.867643 252.394420,528.704843 252.394420,528.704843 C252.394420,528.704843 245.232060,525.622214 244.498026,523.505338 C243.763991,521.388461 243.266010,515.739554 243.266010,515.739554 ZM344.332719,442.896112C344.332719,442.896112 344.156617,444.706343 343.915059,445.383122 C343.673502,446.059900 341.408580,446.936611 341.408580,446.936611 C341.408580,446.936611 343.764523,447.422398 344.093956,448.061032 C344.423389,448.699666 344.838715,450.470387 344.838715,450.470387 C344.838715,450.470387 345.014818,448.660156 345.256375,447.983377 C345.497933,447.306599 347.821165,446.596618 347.821165,446.596618 C347.821165,446.596618 345.406912,445.944101 345.077479,445.305467 C344.748046,444.666833 344.332719,442.896112 344.332719,442.896112 ZM435.318301,518.973939C435.318301,518.973939 434.831940,521.905843 434.363626,522.982632 C433.895312,524.059422 430.106224,525.239453 430.106224,525.239453 C430.106224,525.239453 433.893736,526.290772 434.360528,527.368222 C434.827320,528.445673 435.309537,531.378261 435.309537,531.378261 C435.309537,531.378261 435.795898,528.446357 436.264212,527.369568 C436.732526,526.292778 440.598328,525.390991 440.598328,525.390991 C440.598328,525.390991 436.734103,524.061427 436.267311,522.983977 C435.800519,521.906527 435.318301,518.973939 435.318301,518.973939 ZM899.283915,526.872475C899.283915,526.872475 898.558988,530.546961 897.927844,531.885380 C897.296701,533.223800 892.478658,534.565080 892.478658,534.565080 C892.478658,534.565080 897.209254,536.034415 897.755972,537.409481 C898.302690,538.784548 898.797787,542.496992 898.797787,542.496992 C898.797787,542.496992 899.522714,538.822507 900.153858,537.484087 C900.785001,536.145668 905.689019,535.157810 905.689019,535.157810 C905.689019,535.157810 900.872448,533.335053 900.325730,531.959986 C899.779011,530.584920 899.283915,526.872475 899.283915,526.872475 ZM224.348998,629.986108C224.348998,629.986108 223.897207,632.805260 223.452983,633.842165 C223.008759,634.879070 219.374913,636.032647 219.374913,636.032647 C219.374913,636.032647 223.018997,637.022669 223.473104,638.055284 C223.927211,639.087899 224.405908,641.902608 224.405908,641.902608 C224.405908,641.902608 224.857699,639.083455 225.301922,638.046550 C225.746146,637.009645 229.455155,636.122965 229.455155,636.122965 C229.455155,636.122965 225.735909,634.866046 225.281802,633.833431 C224.827694,632.800816 224.348998,629.986108 224.348998,629.986108 ZM341.201029,552.747841C341.201029,552.747841 339.636631,558.910539 338.444521,561.121763 C337.252410,563.332986 328.962516,565.166750 328.962516,565.166750 C328.962516,565.166750 336.847532,568.089483 337.648757,570.470381 C338.449981,572.851279 338.950269,579.189726 338.950269,579.189726 C338.950269,579.189726 340.514667,573.027027 341.706777,570.815804 C342.898888,568.604580 351.302253,567.377781 351.302253,567.377781 C351.302253,567.377781 343.303766,563.848084 342.502541,561.467186 C341.701317,559.086288 341.201029,552.747841 341.201029,552.747841 ZM930.940301,617.310868C930.940301,617.310868 929.408821,623.374980 928.238806,625.551589 C927.068790,627.728197 918.916250,629.542039 918.916250,629.542039 C918.916250,629.542039 926.676236,632.407637 927.467263,634.748756 C928.258289,637.089875 928.758047,643.324386 928.758047,643.324386 C928.758047,643.324386 930.289527,637.260274 931.459542,635.083665 C932.629558,632.907057 940.894449,631.690147 940.894449,631.690147 C940.894449,631.690147 933.022112,628.227617 932.231085,625.886498 C931.440059,623.545379 930.940301,617.310868 930.940301,617.310868 ZM1008.188057,539.909911C1008.188057,539.909911 1008.095890,541.324515 1007.924541,541.857754 C1007.753193,542.390993 1006.010556,543.130307 1006.010556,543.130307 C1006.010556,543.130307 1007.857988,543.450156 1008.130509,543.939477 C1008.403031,544.428799 1008.770622,545.797914 1008.770622,545.797914 C1008.770622,545.797914 1008.862789,544.383310 1009.034138,543.850071 C1009.205486,543.316833 1010.997696,542.705955 1010.997696,542.705955 C1010.997696,542.705955 1009.100691,542.257670 1008.828170,541.768348 C1008.555648,541.279026 1008.188057,539.909911 1008.188057,539.909911 ZM378.711449,692.808307C378.711449,692.808307 375.578851,703.969890 373.305086,707.945977 C371.031321,711.922064 355.837419,714.886368 355.837419,714.886368 C355.837419,714.886368 370.076363,720.573412 371.428172,724.949699 C372.779981,729.325986 373.402735,740.902095 373.402735,740.902095 C373.402735,740.902095 376.535333,729.740511 378.809098,725.764424 C381.082863,721.788337 396.455904,719.935541 396.455904,719.935541 C396.455904,719.935541 382.037821,713.136989 380.686012,708.760702 C379.334203,704.384415 378.711449,692.808307 378.711449,692.808307 ZM459.478702,653.424465C459.478702,653.424465 459.293823,655.271989 459.045316,655.962215 C458.796809,656.652440 456.482138,657.541071 456.482138,657.541071 C456.482138,657.541071 458.885892,658.043637 459.220403,658.696530 C459.554913,659.349424 459.973921,661.158279 459.973921,661.158279 C459.973921,661.158279 460.158800,659.310755 460.407306,658.620529 C460.655813,657.930304 463.029543,657.212047 463.029543,657.212047 C463.029543,657.212047 460.566731,656.539107 460.232220,655.886214 C459.897709,655.233320 459.478702,653.424465 459.478702,653.424465 ZM571.425465,713.582865C571.425465,713.582865 568.650825,723.554108 566.628699,727.108457 C564.606572,730.662805 551.047378,733.339458 551.047378,733.339458 C551.047378,733.339458 563.771145,738.388598 564.986715,742.293054 C566.202285,746.197510 566.781234,756.531393 566.781234,756.531393 C566.781234,756.531393 569.555875,746.560150 571.578001,743.005802 C573.600127,739.451453 587.321461,737.766796 587.321461,737.766796 C587.321461,737.766796 574.435554,731.725660 573.219985,727.821204 C572.004415,723.916748 571.425465,713.582865 571.425465,713.582865 ZM782.946472,660.800835C782.946472,660.800835 781.074486,667.896644 779.674775,670.435874 C778.275063,672.975104 768.687520,675.002171 768.687520,675.002171 C768.687520,675.002171 777.756497,678.460446 778.655562,681.216995 C779.554627,683.973544 780.063702,691.294451 780.063702,691.294451 C780.063702,691.294451 781.935688,684.198642 783.335399,681.659412 C784.735110,679.120182 794.447073,677.794865 794.447073,677.794865 C794.447073,677.794865 785.253677,673.634840 784.354612,670.878291 C783.455547,668.121742 782.946472,660.800835 782.946472,660.800835 ZM1033.126361,670.289606C1033.126361,670.289606 1032.311699,674.233582 1031.620254,675.666646 C1030.928808,677.099710 1025.735451,678.495744 1025.735451,678.495744 C1025.735451,678.495744 1030.807859,680.120933 1031.382536,681.604684 C1031.957213,683.088435 1032.453994,687.084912 1032.453994,687.084912 C1032.453994,687.084912 1033.268656,683.140936 1033.960102,681.707871 C1034.651548,680.274807 1039.933961,679.259608 1039.933961,679.259608 C1039.933961,679.259608 1034.772496,677.253585 1034.197820,675.769834 C1033.623143,674.286083 1033.126361,670.289606 1033.126361,670.289606 ZM182.626862,760.092307C182.626862,760.092307 182.556764,761.384905 182.405605,761.873511 C182.254446,762.362117 180.670584,763.054509 180.670584,763.054509 C180.670584,763.054509 182.360662,763.328202 182.614366,763.772295 C182.868070,764.216388 183.217328,765.462880 183.217328,765.462880 C183.217328,765.462880 183.287426,764.170282 183.438585,763.681677 C183.589744,763.193071 185.220147,762.617462 185.220147,762.617462 C185.220147,762.617462 183.483528,762.226986 183.229823,761.782892 C182.976119,761.338799 182.626862,760.092307 182.626862,760.092307 ZM420.156530,805.582368C420.156530,805.582368 420.061405,807.012549 419.887426,807.551472 C419.713446,808.090396 417.950454,808.835534 417.950454,808.835534 C417.950454,808.835534 419.817956,809.161459 420.092833,809.656585 C420.367711,810.151711 420.737510,811.536526 420.737510,811.536526 C420.737510,811.536526 420.832635,810.106346 421.006614,809.567422 C421.180594,809.028499 422.993533,808.413292 422.993533,808.413292 C422.993533,808.413292 421.076084,807.957436 420.801207,807.462310 C420.526329,806.967184 420.156530,805.582368 420.156530,805.582368 ZM701.901796,831.156028C701.901796,831.156028 701.217513,834.707164 700.613806,836.002222 C700.010100,837.297280 695.363586,838.612988 695.363586,838.612988 C695.363586,838.612988 699.937669,840.011550 700.471448,841.336962 C701.005228,842.662374 701.499147,846.244950 701.499147,846.244950 C701.499147,846.244950 702.183430,842.693814 702.787137,841.398756 C703.390843,840.103698 708.121883,839.128884 708.121883,839.128884 C708.121883,839.128884 703.463274,837.389428 702.929494,836.064017 C702.395715,834.738605 701.901796,831.156028 701.901796,831.156028 ZM798.827927,802.404930C798.827927,802.404930 798.152419,805.929306 797.554648,807.214953 C796.956878,808.500601 792.347550,809.810710 792.347550,809.810710 C792.347550,809.810710 796.887674,811.193974 797.418632,812.508623 C797.949590,813.823272 798.443214,817.377689 798.443214,817.377689 C798.443214,817.377689 799.118722,813.853312 799.716493,812.567665 C800.314263,811.282018 805.007799,810.310085 805.007799,810.310085 C805.007799,810.310085 800.383467,808.588644 799.852509,807.273995 C799.321551,805.959346 798.827927,802.404930 798.827927,802.404930 ZM935.669785,766.837856C935.669785,766.837856 934.534272,771.729636 933.628729,773.495063 C932.723186,775.260489 926.206691,776.842828 926.206691,776.842828 C926.206691,776.842828 932.480521,779.023065 933.151785,780.890186 C933.823048,782.757308 934.320782,787.754424 934.320782,787.754424 C934.320782,787.754424 935.456296,782.862643 936.361838,781.097217 C937.267381,779.331790 943.883312,778.226909 943.883312,778.226909 C943.883312,778.226909 937.510046,775.569215 936.838783,773.702093 C936.167519,771.834972 935.669785,766.837856 935.669785,766.837856 ZM224.938562,861.323537C224.938562,861.323537 224.150803,865.187068 223.477403,866.591891 C222.804002,867.996714 217.722751,869.376542 217.722751,869.376542 C217.722751,869.376542 222.693141,870.955053 223.259510,872.406336 C223.825880,873.857618 224.322269,877.769272 224.322269,877.769272 C224.322269,877.769272 225.110027,873.905741 225.783428,872.500918 C226.456828,871.096095 231.626227,870.088914 231.626227,870.088914 C231.626227,870.088914 226.567690,868.137755 226.001320,866.686473 C225.434950,865.235190 224.938562,861.323537 224.938562,861.323537 ZM380.665172,918.153733C380.665172,918.153733 380.562328,919.623830 380.381552,920.177309 C380.200776,920.730787 378.385538,921.490682 378.385538,921.490682 C378.385538,921.490682 380.304452,921.832364 380.585320,922.342394 C380.866189,922.852424 381.241514,924.277519 381.241514,924.277519 C381.241514,924.277519 381.344358,922.807421 381.525134,922.253943 C381.705910,921.700465 383.572044,921.074334 383.572044,921.074334 C383.572044,921.074334 381.602235,920.598888 381.321366,920.088858 C381.040498,919.578827 380.665172,918.153733 380.665172,918.153733 ZM514.776180,869.354236C514.776180,869.354236 514.673565,870.823163 514.492989,871.376215 C514.312414,871.929267 512.498709,872.688732 512.498709,872.688732 C512.498709,872.688732 514.416116,873.029948 514.696809,873.539541 C514.977503,874.049134 515.352670,875.473046 515.352670,875.473046 C515.352670,875.473046 515.455284,874.004119 515.635860,873.451067 C515.816435,872.898016 517.681008,872.272201 517.681008,872.272201 C517.681008,872.272201 515.712734,871.797334 515.432040,871.287741 C515.151346,870.778149 514.776180,869.354236 514.776180,869.354236 ZM933.638924,893.086971C933.638924,893.086971 933.129210,896.094075 932.644716,897.197437 C932.160221,898.300800 928.267416,899.498123 928.267416,899.498123 C928.267416,899.498123 932.150546,900.590713 932.625700,901.698130 C933.100854,902.805546 933.585139,905.816851 933.585139,905.816851 C933.585139,905.816851 934.094853,902.809746 934.579347,901.706384 C935.063842,900.603022 939.034370,899.691523 939.034370,899.691523 C939.034370,899.691523 935.073517,898.313108 934.598363,897.205692 C934.123209,896.098275 933.638924,893.086971 933.638924,893.086971 ZM1020.306781,838.394855C1020.306781,838.394855 1019.281798,842.961429 1018.449884,844.612860 C1017.617970,846.264290 1011.555728,847.783230 1011.555728,847.783230 C1011.555728,847.783230 1017.417394,849.772442 1018.055663,851.507929 C1018.693932,853.243416 1019.191757,857.897055 1019.191757,857.897055 C1019.191757,857.897055 1020.216741,853.330481 1021.048654,851.679051 C1021.880568,850.027621 1028.038724,848.952967 1028.038724,848.952967 C1028.038724,848.952967 1022.081144,846.519469 1021.442875,844.783982 C1020.804606,843.048495 1020.306781,838.394855 1020.306781,838.394855 ZM113.821955,1012.081178C113.821955,1012.081178 112.307492,1018.094415 111.148890,1020.253163 C109.990287,1022.411912 101.908646,1024.215508 101.908646,1024.215508 C101.908646,1024.215508 109.604113,1027.051584 110.389887,1029.372169 C111.175661,1031.692754 111.675173,1037.873619 111.675173,1037.873619 C111.675173,1037.873619 113.189636,1031.860383 114.348238,1029.701634 C115.506841,1027.542885 123.700258,1026.331043 123.700258,1026.331043 C123.700258,1026.331043 115.893014,1022.903214 115.107241,1020.582629 C114.321467,1018.262044 113.821955,1012.081178 113.821955,1012.081178 ZM205.134327,967.884204C205.134327,967.884204 205.029816,969.362790 204.847585,969.919361 C204.665354,970.475932 202.838991,971.238934 202.838991,971.238934 C202.838991,971.238934 204.768833,971.584000 205.050967,972.097205 C205.333101,972.610411 205.709578,974.044079 205.709578,974.044079 C205.709578,974.044079 205.814089,972.565493 205.996320,972.008922 C206.178551,971.452351 208.056009,970.823928 208.056009,970.823928 C208.056009,970.823928 206.075072,970.344283 205.792938,969.831077 C205.510804,969.317872 205.134327,967.884204 205.134327,967.884204 ZM477.404589,966.546725C477.404589,966.546725 477.103942,968.845167 476.767711,969.697061 C476.431479,970.548954 473.509462,971.570206 473.509462,971.570206 C473.509462,971.570206 476.489972,972.288338 476.882675,973.115719 C477.275378,973.943100 477.729758,976.216151 477.729758,976.216151 C477.729758,976.216151 478.030405,973.917709 478.366637,973.065816 C478.702868,972.213922 481.692131,971.407509 481.692131,971.407509 C481.692131,971.407509 478.644375,970.474538 478.251672,969.647157 C477.858969,968.819777 477.404589,966.546725 477.404589,966.546725 ZM588.117353,992.988640C588.117353,992.988640 587.953175,994.747236 587.721152,995.405374 C587.489130,996.063511 585.292956,996.923446 585.292956,996.923446 C585.292956,996.923446 587.582667,997.386301 587.904994,998.005239 C588.227321,998.624178 588.637335,1000.342172 588.637335,1000.342172 C588.637335,1000.342172 588.801513,998.583576 589.033536,997.925438 C589.265558,997.267300 591.518988,996.569058 591.518988,996.569058 C591.518988,996.569058 589.172022,995.944511 588.849695,995.325572 C588.527367,994.706634 588.117353,992.988640 588.117353,992.988640 ZM698.255145,1007.137325C698.255145,1007.137325 697.739699,1010.162781 697.251243,1011.272624 C696.762787,1012.382468 692.844652,1013.583971 692.844652,1013.583971 C692.844652,1013.583971 696.751111,1014.686676 697.228294,1015.801413 C697.705477,1016.916149 698.190235,1019.946674 698.190235,1019.946674 C698.190235,1019.946674 698.705681,1016.921218 699.194137,1015.811375 C699.682593,1014.701531 703.678695,1013.787704 703.678695,1013.787704 C703.678695,1013.787704 699.694270,1012.397323 699.217086,1011.282586 C698.739903,1010.167850 698.255145,1007.137325 698.255145,1007.137325 ZM777.621507,926.118971C777.621507,926.118971 774.857648,936.054739 772.843064,939.596530 C770.828481,943.138321 757.318072,945.806537 757.318072,945.806537 C757.318072,945.806537 769.996700,950.836517 771.208248,954.726888 C772.419795,958.617258 772.997547,968.914084 772.997547,968.914084 C772.997547,968.914084 775.761406,958.978315 777.775989,955.436524 C779.790572,951.894733 793.462625,950.214946 793.462625,950.214946 C793.462625,950.214946 780.622353,944.196537 779.410806,940.306167 C778.199258,936.415796 777.621507,926.118971 777.621507,926.118971 ZM402.919828,1040.008716C402.919828,1040.008716 402.698626,1042.005066 402.421888,1042.748831 C402.145150,1043.492597 399.631155,1044.427248 399.631155,1044.427248 C399.631155,1044.427248 402.225533,1044.998482 402.579876,1045.708562 C402.934219,1046.418641 403.366687,1048.380098 403.366687,1048.380098 C403.366687,1048.380098 403.587889,1046.383748 403.864627,1045.639982 C404.141365,1044.896217 406.717286,1044.146539 406.717286,1044.146539 C406.717286,1044.146539 404.060982,1043.390331 403.706639,1042.680252 C403.352296,1041.970173 402.919828,1040.008716 402.919828,1040.008716 ZM342.309629,1120.794060C342.309629,1120.794060 342.099414,1122.746250 341.831133,1123.474150 C341.562853,1124.202050 339.108126,1125.123297 339.108126,1125.123297 C339.108126,1125.123297 341.645972,1125.673880 341.994501,1126.366947 C342.343029,1127.060013 342.771701,1128.976123 342.771701,1128.976123 C342.771701,1128.976123 342.981916,1127.023933 343.250197,1126.296033 C343.518478,1125.568133 346.034299,1124.827519 346.034299,1124.827519 C346.034299,1124.827519 343.435358,1124.096303 343.086830,1123.403236 C342.738302,1122.710170 342.309629,1120.794060 342.309629,1120.794060 ZM536.418045,1085.130677C536.418045,1085.130677 533.370686,1096.006735 531.157042,1099.881601 C528.943397,1103.756466 514.141235,1106.651028 514.141235,1106.651028 C514.141235,1106.651028 528.016649,1112.185879 529.335571,1116.449123 C530.654494,1120.712367 531.266149,1131.990706 531.266149,1131.990706 C531.266149,1131.990706 534.313509,1121.114647 536.527153,1117.239782 C538.740797,1113.364916 553.717966,1111.553221 553.717966,1111.553221 C553.717966,1111.553221 539.667546,1104.935503 538.348623,1100.672259 C537.029701,1096.409016 536.418045,1085.130677 536.418045,1085.130677 ZM779.272314,1124.210412C779.272314,1124.210412 778.484265,1128.074813 777.810669,1129.479942 C777.137074,1130.885070 772.054610,1132.265074 772.054610,1132.265074 C772.054610,1132.265074 777.026104,1133.844090 777.592563,1135.295724 C778.159023,1136.747357 778.655416,1140.659928 778.655416,1140.659928 C778.655416,1140.659928 779.443466,1136.795527 780.117061,1135.390399 C780.790656,1133.985270 785.961277,1132.978002 785.961277,1132.978002 C785.961277,1132.978002 780.901627,1131.026250 780.335167,1129.574617 C779.768707,1128.122983 779.272314,1124.210412 779.272314,1124.210412 ZM855.607157,1048.879146C855.607157,1048.879146 854.804832,1052.786266 854.121658,1054.206393 C853.438484,1055.626520 848.296495,1057.015142 848.296495,1057.015142 C848.296495,1057.015142 853.322165,1058.618931 853.893039,1060.087804 C854.463914,1061.556678 854.960526,1065.514289 854.960526,1065.514289 C854.960526,1065.514289 855.762851,1061.607169 856.446025,1060.187043 C857.129199,1058.766916 862.359830,1057.755377 862.359830,1057.755377 C862.359830,1057.755377 857.245519,1055.774504 856.674644,1054.305631 C856.103769,1052.836758 855.607157,1048.879146 855.607157,1048.879146 ZM933.270551,1117.041005C933.270551,1117.041005 932.110628,1122.004601 931.188825,1123.795202 C930.267022,1125.585802 923.650212,1127.182139 923.650212,1127.182139 C923.650212,1127.182139 930.015061,1129.404563 930.693610,1131.300754 C931.372159,1133.196945 931.869872,1138.269912 931.869872,1138.269912 C931.869872,1138.269912 933.029796,1133.306316 933.951598,1131.515715 C934.873401,1129.725115 941.590425,1128.613560 941.590425,1128.613560 C941.590425,1128.613560 935.125362,1125.906354 934.446813,1124.010163 C933.768264,1122.113972 933.270551,1117.041005 933.270551,1117.041005 ZM556.552554,1229.729038C556.552554,1229.729038 556.307016,1231.820890 556.011769,1232.598915 C555.716522,1233.376939 553.074003,1234.339898 553.074003,1234.339898 C553.074003,1234.339898 555.790562,1234.956547 556.157291,1235.703542 C556.524020,1236.450538 556.964153,1238.510251 556.964153,1238.510251 C556.964153,1238.510251 557.209692,1236.418399 557.504939,1235.640375 C557.800186,1234.862350 560.506382,1234.093774 560.506382,1234.093774 C560.506382,1234.093774 557.726146,1233.282742 557.359417,1232.535747 C556.992688,1231.788751 556.552554,1229.729038 556.552554,1229.729038 ZM776.049561,1262.833956C776.049561,1262.833956 775.331606,1266.487350 774.705162,1267.818356 C774.078718,1269.149363 769.290020,1270.486296 769.290020,1270.486296 C769.290020,1270.486296 773.993855,1271.943501 774.538368,1273.310072 C775.082881,1274.676643 775.577797,1278.366873 775.577797,1278.366873 C775.577797,1278.366873 776.295752,1274.713480 776.922196,1273.382473 C777.548640,1272.051466 782.423067,1271.065813 782.423067,1271.065813 C782.423067,1271.065813 777.633503,1269.257329 777.088990,1267.890758 C776.544477,1266.524187 776.049561,1262.833956 776.049561,1262.833956 ZM904.852191,1245.120089C904.852191,1245.120089 904.773625,1246.460813 904.614593,1246.967047 C904.455561,1247.473282 902.809210,1248.184466 902.809210,1248.184466 C902.809210,1248.184466 904.561391,1248.476053 904.822597,1248.937937 C905.083803,1249.399820 905.440516,1250.694606 905.440516,1250.694606 C905.440516,1250.694606 905.519083,1249.353881 905.678115,1248.847647 C905.837147,1248.341412 907.531255,1247.751600 907.531255,1247.751600 C907.531255,1247.751600 905.731316,1247.338641 905.470111,1246.876757 C905.208905,1246.414874 904.852191,1245.120089 904.852191,1245.120089 ZM857.957754,1337.840774C857.957754,1337.840774 857.855334,1339.308707 857.674928,1339.861396 C857.494523,1340.414086 855.682121,1341.173187 855.682121,1341.173187 C855.682121,1341.173187 857.598247,1341.514007 857.878792,1342.023228 C858.159338,1342.532449 858.534369,1343.955358 858.534369,1343.955358 C858.534369,1343.955358 858.636789,1342.487425 858.817194,1341.934735 C858.997600,1341.382046 860.860846,1340.756501 860.860846,1340.756501 C860.860846,1340.756501 858.893875,1340.282125 858.613330,1339.772903 C858.332785,1339.263682 857.957754,1337.840774 857.957754,1337.840774 ZM446.150694,1338.978513C446.150694,1338.978513 445.982279,1340.755588 445.746856,1341.420400 C445.511433,1342.085211 443.290675,1342.951186 443.290675,1342.951186 C443.290675,1342.951186 445.604093,1343.422208 445.928973,1344.048188 C446.253853,1344.674169 446.665798,1346.411022 446.665798,1346.411022 C446.665798,1346.411022 446.834213,1344.633948 447.069636,1343.969136 C447.305059,1343.304324 449.583453,1342.601843 449.583453,1342.601843 C449.583453,1342.601843 447.212400,1341.967327 446.887519,1341.341347 C446.562639,1340.715366 446.150694,1338.978513 446.150694,1338.978513 ZM777.523892,1416.463808C777.523892,1416.463808 776.759145,1420.258307 776.101201,1421.638888 C775.443258,1423.019470 770.458160,1424.385303 770.458160,1424.385303 C770.458160,1424.385303 775.340996,1425.923858 775.900213,1427.347295 C776.459429,1428.770731 776.955410,1432.609620 776.955410,1432.609620 C776.955410,1432.609620 777.720157,1428.815121 778.378101,1427.434539 C779.036045,1426.053958 784.108502,1425.053749 784.108502,1425.053749 C784.108502,1425.053749 779.138306,1423.149570 778.579090,1421.726133 C778.019874,1420.302696 777.523892,1416.463808 777.523892,1416.463808 ZM1011.765944,1336.472558C1011.765944,1336.472558 1011.151758,1339.808448 1010.595612,1341.027761 C1010.039466,1342.247073 1005.691775,1343.517170 1005.691775,1343.517170 C1005.691775,1343.517170 1009.992627,1344.793321 1010.503553,1346.032262 C1011.014479,1347.271204 1011.505561,1350.627426 1011.505561,1350.627426 C1011.505561,1350.627426 1012.119746,1347.291536 1012.675892,1346.072223 C1013.232038,1344.852911 1017.661655,1343.901878 1017.661655,1343.901878 C1017.661655,1343.901878 1013.278877,1342.306663 1012.767952,1341.067722 C1012.257026,1339.828780 1011.765944,1336.472558 1011.765944,1336.472558 ZM416.832288,1523.448640C416.832288,1523.448640 416.668508,1525.205490 416.436806,1525.862997 C416.205104,1526.520504 414.011252,1527.379865 414.011252,1527.379865 C414.011252,1527.379865 416.298722,1527.841951 416.620808,1528.460224 C416.942893,1529.078498 417.352723,1530.794710 417.352723,1530.794710 C417.352723,1530.794710 417.516503,1529.037860 417.748205,1528.380353 C417.979906,1527.722847 420.230978,1527.025007 420.230978,1527.025007 C420.230978,1527.025007 417.886288,1526.401399 417.564203,1525.783126 C417.242118,1525.164852 416.832288,1523.448640 416.832288,1523.448640 ZM552.350342,1469.491565C552.350342,1469.491565 552.165873,1471.337358 551.917690,1472.026961 C551.669507,1472.716563 549.357145,1473.604644 549.357145,1473.604644 C549.357145,1473.604644 551.758682,1474.106428 552.092958,1474.758659 C552.427234,1475.410890 552.846073,1477.217975 552.846073,1477.217975 C552.846073,1477.217975 553.030542,1475.372182 553.278725,1474.682579 C553.526908,1473.992977 555.898294,1473.275101 555.898294,1473.275101 C555.898294,1473.275101 553.437734,1472.603112 553.103458,1471.950881 C552.769182,1471.298650 552.350342,1469.491565 552.350342,1469.491565 ZM918.018798,1485.217100C918.018798,1485.217100 917.749700,1487.398759 917.436788,1488.208933 C917.123877,1489.019107 914.360096,1490.007878 914.360096,1490.007878 C914.360096,1490.007878 917.191452,1490.668122 917.569604,1491.449977 C917.947755,1492.231832 918.394457,1494.384157 918.394457,1494.384157 C918.394457,1494.384157 918.663555,1492.202499 918.976467,1491.392325 C919.289378,1490.582151 922.118423,1489.796638 922.118423,1489.796638 C922.118423,1489.796638 919.221803,1488.933135 918.843651,1488.151281 C918.465500,1487.369426 918.018798,1485.217100 918.018798,1485.217100 ZM1023.663314,1439.218317C1023.663314,1439.218317 1023.360692,1441.523952 1023.023012,1442.378412 C1022.685332,1443.232873 1019.753549,1444.256087 1019.753549,1444.256087 C1019.753549,1444.256087 1022.743242,1444.977827 1023.136831,1445.808018 C1023.530419,1446.638210 1023.985242,1448.918707 1023.985242,1448.918707 C1023.985242,1448.918707 1024.287864,1446.613073 1024.625544,1445.758612 C1024.963224,1444.904152 1027.962372,1444.096491 1027.962372,1444.096491 C1027.962372,1444.096491 1024.905314,1443.159198 1024.511725,1442.329006 C1024.118137,1441.498815 1023.663314,1439.218317 1023.663314,1439.218317 ZM333.819078,1597.869526C333.819078,1597.869526 333.248098,1601.070788 332.721455,1602.242663 C332.194811,1603.414539 328.033639,1604.655346 328.033639,1604.655346 C328.033639,1604.655346 332.163506,1605.855773 332.659926,1607.040767 C333.156346,1608.225761 333.645050,1611.440612 333.645050,1611.440612 C333.645050,1611.440612 334.216030,1608.239350 334.742673,1607.067475 C335.269316,1605.895600 339.510731,1604.960228 339.510731,1604.960228 C339.510731,1604.960228 335.300621,1603.454366 334.804201,1602.269371 C334.307782,1601.084377 333.819078,1597.869526 333.819078,1597.869526 ZM496.451746,1602.977903C496.451746,1602.977903 495.733751,1606.631414 495.107282,1607.962462 C494.480812,1609.293510 489.691950,1610.630467 489.691950,1610.630467 C489.691950,1610.630467 494.395934,1612.087739 494.940459,1613.454357 C495.484985,1614.820975 495.979901,1618.511329 495.979901,1618.511329 C495.979901,1618.511329 496.697895,1614.857819 497.324365,1613.526771 C497.950835,1612.195723 502.825427,1611.210057 502.825427,1611.210057 C502.825427,1611.210057 498.035713,1609.401494 497.491187,1608.034875 C496.946662,1606.668257 496.451746,1602.977903 496.451746,1602.977903 ZM745.010183,1568.388440C745.010183,1568.388440 744.938787,1569.688536 744.786409,1570.179891 C744.634031,1570.671245 743.040446,1571.366590 743.040446,1571.366590 C743.040446,1571.366590 744.740203,1571.643044 744.995083,1572.089904 C745.249963,1572.536765 745.600402,1573.790774 745.600402,1573.790774 C745.600402,1573.790774 745.671798,1572.490678 745.824176,1571.999324 C745.976554,1571.507969 747.616872,1570.930122 747.616872,1570.930122 C747.616872,1570.930122 745.870382,1570.536171 745.615502,1570.089310 C745.360622,1569.642450 745.010183,1568.388440 745.010183,1568.388440 ZM877.002545,1582.434820C877.002545,1582.434820 876.900335,1583.901677 876.720113,1584.453975 C876.539892,1585.006272 874.728899,1585.764978 874.728899,1585.764978 C874.728899,1585.764978 876.643640,1586.105371 876.924025,1586.614190 C877.204410,1587.123009 877.579294,1588.544832 877.579294,1588.544832 C877.579294,1588.544832 877.681504,1587.077974 877.861725,1586.525677 C878.041947,1585.973379 879.903758,1585.348126 879.903758,1585.348126 C879.903758,1585.348126 877.938198,1584.874280 877.657813,1584.365461 C877.377429,1583.856642 877.002545,1582.434820 877.002545,1582.434820 ZM1036.970984,1578.795949C1036.970984,1578.795949 1036.696956,1580.996103 1036.380376,1581.812891 C1036.063797,1582.629679 1033.274995,1583.623675 1033.274995,1583.623675 C1033.274995,1583.623675 1036.129984,1584.292999 1036.510462,1585.082049 C1036.890940,1585.871100 1037.338921,1588.042525 1037.338921,1588.042525 C1037.338921,1588.042525 1037.612949,1585.842370 1037.929529,1585.025582 C1038.246108,1584.208794 1041.100493,1583.419889 1041.100493,1583.419889 C1041.100493,1583.419889 1038.179922,1582.545475 1037.799443,1581.756424 C1037.418965,1580.967373 1036.970984,1578.795949 1036.970984,1578.795949 ZM8.242110,1696.596447C8.242110,1696.596447 8.035288,1698.534859 7.769633,1699.257805 C7.503977,1699.980751 5.067722,1700.897772 5.067722,1700.897772 C5.067722,1700.897772 7.587925,1701.441959 7.934626,1702.129724 C8.281328,1702.817490 8.708783,1704.719462 8.708783,1704.719462 C8.708783,1704.719462 8.915605,1702.781050 9.181261,1702.058104 C9.446916,1701.335158 11.944002,1700.597417 11.944002,1700.597417 C11.944002,1700.597417 9.362969,1699.873950 9.016267,1699.186185 C8.669565,1698.498419 8.242110,1696.596447 8.242110,1696.596447 ZM259.392875,1713.816878C259.392875,1713.816878 259.312278,1715.168882 259.151384,1715.679244 C258.990489,1716.189606 257.329465,1716.905140 257.329465,1716.905140 C257.329465,1716.905140 259.096196,1717.200982 259.359145,1717.667044 C259.622093,1718.133107 259.980512,1719.439226 259.980512,1719.439226 C259.980512,1719.439226 260.061108,1718.087222 260.222003,1717.576860 C260.382898,1717.066498 262.091961,1716.473412 262.091961,1716.473412 C262.091961,1716.473412 260.277191,1716.055122 260.014242,1715.589059 C259.751293,1715.122997 259.392875,1713.816878 259.392875,1713.816878 ZM428.065842,1678.060488C428.065842,1678.060488 426.212130,1685.100215 424.824814,1687.619711 C423.437498,1690.139207 413.927818,1692.154402 413.927818,1692.154402 C413.927818,1692.154402 422.925607,1695.580770 423.818721,1698.314787 C424.711835,1701.048805 425.220181,1708.310732 425.220181,1708.310732 C425.220181,1708.310732 427.073893,1701.271005 428.461209,1698.751509 C429.848524,1696.232013 439.481947,1694.912879 439.481947,1694.912879 C439.481947,1694.912879 430.360416,1690.790450 429.467302,1688.056433 C428.574188,1685.322415 428.065842,1678.060488 428.065842,1678.060488 ZM528.415055,1708.173570C528.415055,1708.173570 528.011993,1710.830415 527.602050,1711.809807 C527.192107,1712.789199 523.781110,1713.903456 523.781110,1713.903456 C523.781110,1713.903456 527.218582,1714.806604 527.654086,1715.774901 C528.089590,1716.743197 528.562237,1719.388550 528.562237,1719.388550 C528.562237,1719.388550 528.965299,1716.731705 529.375242,1715.752313 C529.785186,1714.772921 533.269019,1713.909268 533.269019,1713.909268 C533.269019,1713.909268 529.758710,1712.755515 529.323206,1711.787219 C528.887702,1710.818923 528.415055,1708.173570 528.415055,1708.173570 ZM964.150403,1671.179643C964.150403,1671.179643 963.482283,1674.681453 962.889513,1675.959163 C962.296744,1677.236873 957.718768,1678.542246 957.718768,1678.542246 C957.718768,1678.542246 962.230251,1679.912626 962.758826,1681.218201 C963.287402,1682.523776 963.780765,1686.054449 963.780765,1686.054449 C963.780765,1686.054449 964.448885,1682.552639 965.041654,1681.274929 C965.634424,1679.997220 970.296339,1679.027733 970.296339,1679.027733 C970.296339,1679.027733 965.700916,1677.321466 965.172341,1676.015891 C964.643766,1674.710316 964.150403,1671.179643 964.150403,1671.179643 ZM-26.456868,1791.749908C-26.456868,1791.749908 -26.541551,1793.124339 -26.706169,1793.642903 C-26.870786,1794.161466 -28.561014,1794.885590 -28.561014,1794.885590 C-28.561014,1794.885590 -26.765362,1795.189955 -26.498964,1795.664338 C-26.232566,1796.138721 -25.870806,1797.467391 -25.870806,1797.467391 C-25.870806,1797.467391 -25.786123,1796.092959 -25.621506,1795.574396 C-25.456888,1795.055832 -23.718067,1794.456299 -23.718067,1794.456299 C-23.718067,1794.456299 -25.562312,1794.027343 -25.828710,1793.552960 C-26.095108,1793.078577 -26.456868,1791.749908 -26.456868,1791.749908 ZM88.501109,1777.743219C88.501109,1777.743219 87.305946,1782.810534 86.360665,1784.637493 C85.415384,1786.464452 78.653704,1788.081022 78.653704,1788.081022 C78.653704,1788.081022 85.150008,1790.364354 85.839083,1792.302526 C86.528159,1794.240697 87.025854,1799.423206 87.025854,1799.423206 C87.025854,1799.423206 88.221018,1794.355891 89.166298,1792.528932 C90.111579,1790.701974 96.974596,1789.580764 96.974596,1789.580764 C96.974596,1789.580764 90.376955,1786.802071 89.687880,1784.863899 C88.998804,1782.925728 88.501109,1777.743219 88.501109,1777.743219 ZM190.645390,1788.046904C190.645390,1788.046904 189.397650,1793.269110 188.417326,1795.150370 C187.437003,1797.031630 180.459008,1798.678476 180.459008,1798.678476 C180.459008,1798.678476 187.151629,1801.052703 187.856442,1803.053556 C188.561254,1805.054409 189.058970,1810.400489 189.058970,1810.400489 C189.058970,1810.400489 190.306710,1805.178283 191.287034,1803.297023 C192.267357,1801.415763 199.348372,1800.280074 199.348372,1800.280074 C199.348372,1800.280074 192.552730,1797.394690 191.847918,1795.393837 C191.143105,1793.392984 190.645390,1788.046904 190.645390,1788.046904 ZM326.463879,1780.898655C326.463879,1780.898655 325.091456,1786.489305 324.027922,1788.499769 C322.964388,1790.510234 315.472071,1792.229555 315.472071,1792.229555 C315.472071,1792.229555 322.631732,1794.819491 323.374106,1796.969364 C324.116479,1799.119237 324.614606,1804.854285 324.614606,1804.854285 C324.614606,1804.854285 325.987029,1799.263635 327.050562,1797.253171 C328.114096,1795.242706 335.713473,1794.072100 335.713473,1794.072100 C335.713473,1794.072100 328.446752,1790.933449 327.704379,1788.783576 C326.962006,1786.633703 326.463879,1780.898655 326.463879,1780.898655 ZM452.623752,1778.955305C452.623752,1778.955305 450.765732,1786.008245 449.375495,1788.532390 C447.985258,1791.056535 438.457231,1793.074525 438.457231,1793.074525 C438.457231,1793.074525 447.471791,1796.508413 448.366307,1799.247740 C449.260822,1801.987066 449.769337,1809.262890 449.769337,1809.262890 C449.769337,1809.262890 451.627357,1802.209950 453.017594,1799.685805 C454.407832,1797.161660 464.059760,1795.841072 464.059760,1795.841072 C464.059760,1795.841072 454.921298,1791.709782 454.026782,1788.970455 C453.132267,1786.231129 452.623752,1778.955305 452.623752,1778.955305 ZM888.116907,1751.569147C888.116907,1751.569147 887.050410,1756.257901 886.190840,1757.952160 C885.331269,1759.646420 879.098373,1761.189195 879.098373,1761.189195 C879.098373,1761.189195 885.114890,1763.250157 885.765559,1765.035096 C886.416229,1766.820035 886.914032,1771.602714 886.914032,1771.602714 C886.914032,1771.602714 887.980529,1766.913960 888.840099,1765.219700 C889.699670,1763.525440 896.029804,1762.439413 896.029804,1762.439413 C896.029804,1762.439413 889.916049,1759.921704 889.265380,1758.136765 C888.614710,1756.351826 888.116907,1751.569147 888.116907,1751.569147 ZM126.184146,1872.063878C126.184146,1872.063878 124.596800,1878.295435 123.389275,1880.530839 C122.181749,1882.766244 113.795947,1884.613975 113.795947,1884.613975 C113.795947,1884.613975 121.768297,1887.576555 122.576659,1889.985228 C123.385021,1892.393900 123.885721,1898.804927 123.885721,1898.804927 C123.885721,1898.804927 125.473067,1892.573370 126.680592,1890.337966 C127.888118,1888.102561 136.388177,1886.868798 136.388177,1886.868798 C136.388177,1886.868798 128.301570,1883.292250 127.493208,1880.883577 C126.684846,1878.474905 126.184146,1872.063878 126.184146,1872.063878 ZM243.907476,1883.125878C243.907476,1883.125878 243.605843,1885.427912 243.268888,1886.281087 C242.931933,1887.134262 240.005039,1888.156495 240.005039,1888.156495 C240.005039,1888.156495 242.990135,1888.876428 243.383281,1889.705212 C243.776426,1890.533997 244.231027,1892.810767 244.231027,1892.810767 C244.231027,1892.810767 244.532660,1890.508732 244.869615,1889.655557 C245.206570,1888.802382 248.200769,1887.995345 248.200769,1887.995345 C248.200769,1887.995345 245.148368,1887.060216 244.755222,1886.231432 C244.362077,1885.402647 243.907476,1883.125878 243.907476,1883.125878 ZM835.714870,1833.585990C835.714870,1833.585990 834.053555,1840.040295 832.796264,1842.353947 C831.538972,1844.667600 822.843074,1846.560827 822.843074,1846.560827 C822.843074,1846.560827 831.097978,1849.651965 831.929516,1852.150428 C832.761053,1854.648890 833.263337,1861.294621 833.263337,1861.294621 C833.263337,1861.294621 834.924652,1854.840316 836.181943,1852.526663 C837.439235,1850.213010 846.251956,1848.956401 846.251956,1848.956401 C846.251956,1848.956401 837.880229,1845.228645 837.048691,1842.730183 C836.217154,1840.231720 835.714870,1833.585990 835.714870,1833.585990 ZM741.583450,1939.352738C741.583450,1939.352738 741.038391,1942.472367 740.529531,1943.615451 C740.020671,1944.758535 735.972431,1945.981251 735.972431,1945.981251 C735.972431,1945.981251 739.998579,1947.136126 740.486111,1948.288468 C740.973643,1949.440811 741.460642,1952.570028 741.460642,1952.570028 C741.460642,1952.570028 742.005701,1949.450400 742.514561,1948.307316 C743.023421,1947.164232 747.150858,1946.238699 747.150858,1946.238699 C747.150858,1946.238699 743.045513,1944.786640 742.557981,1943.634298 C742.070449,1942.481956 741.583450,1939.352738 741.583450,1939.352738 Z" fill="#FFFFFF" stroke="#FFF8C7" stroke-width="1" stroke-dasharray="none" stroke-dashoffset="0" stroke-linecap="butt" stroke-linejoin="miter" stroke-miterlimit="4" />
		<path class="vector-data" d="M1208.384760,1835.229600C1208.384760,1835.229600 1206.172139,1848.626450 1204.035982,1853.547596 C1201.899826,1858.468742 1184.592055,1863.872302 1184.592055,1863.872302 C1184.592055,1863.872302 1201.899826,1868.663340 1204.035982,1873.584486 C1206.172139,1878.505632 1208.384760,1891.902482 1208.384760,1891.902482 C1208.384760,1891.902482 1210.597380,1878.505632 1212.733537,1873.584486 C1214.869693,1868.663340 1232.528854,1864.530774 1232.528854,1864.530774 C1232.528854,1864.530774 1214.869693,1858.468742 1212.733537,1853.547596 C1210.597380,1848.626450 1208.384760,1835.229600 1208.384760,1835.229600 Z" fill="#FFFFFF" stroke="#FFF8C7" stroke-width="1" stroke-dasharray="none" stroke-dashoffset="0" stroke-linecap="butt" stroke-linejoin="miter" stroke-miterlimit="4" />
	</g>
</g></g></svg>